<?xml version="1.0" encoding="utf-8"?>
<!-- Generator: Adobe Illustrator 12.0.1, SVG Export Plug-In . SVG Version: 6.00 Build 51448)  -->
<!DOCTYPE svg PUBLIC "-//W3C//DTD SVG 1.1//EN" "http://www.w3.org/Graphics/SVG/1.1/DTD/svg11.dtd" [
	<!ENTITY ns_svg "http://www.w3.org/2000/svg">
	<!ENTITY ns_xlink "http://www.w3.org/1999/xlink">
]>
<svg  version="1.1" id="Layer_1" xmlns="&ns_svg;" xmlns:xlink="&ns_xlink;" width="56.693" height="56.693"
	 viewBox="0 0 56.693 56.693" overflow="visible" enable-background="new 0 0 56.693 56.693" xml:space="preserve">
<path fill="#0075B2" d="M28.347,5.157c-13.601,0-24.625,11.027-24.625,24.625c0,13.6,11.024,24.623,24.625,24.623
	c13.6,0,24.625-11.023,24.625-24.623C52.972,16.184,41.946,5.157,28.347,5.157z M34.864,29.679H30.6c0,6.813,0,15.206,0,15.206
	h-6.32c0,0,0-8.307,0-15.206h-3.006V24.31h3.006v-3.479c0-2.49,1.182-6.377,6.379-6.377l4.68,0.019v5.215c0,0-2.846,0-3.397,0
	c-0.555,0-1.34,0.276-1.34,1.461v3.163h4.817L34.864,29.679z"/>
</svg>
