<?xml version="1.0" encoding="utf-8"?>
<!-- Generator: Adobe Illustrator 16.0.0, SVG Export Plug-In . SVG Version: 6.00 Build 0)  -->
<!DOCTYPE svg PUBLIC "-//W3C//DTD SVG 1.1//EN" "http://www.w3.org/Graphics/SVG/1.1/DTD/svg11.dtd">
<svg version="1.1" xmlns="http://www.w3.org/2000/svg" xmlns:xlink="http://www.w3.org/1999/xlink" x="0px" y="0px" width="180px"
	 height="72px" viewBox="0 0 180 72" enable-background="new 0 0 180 72" xml:space="preserve">
<g id="Layer_2">
	<rect x="9" y="42" fill="#E2F5FF" width="20.25" height="23"/>
	<rect x="9" y="7.25" fill="#E2F5FF" width="20.25" height="23"/>
	<rect x="40" y="45.5" fill="#E2F5FF" width="29" height="16"/>
	<rect x="40" y="9.5" fill="#E2F5FF" width="29" height="16"/>
	<rect x="76.5" y="45.5" fill="#E2F5FF" width="27" height="19"/>
	<rect x="76.5" y="8.75" fill="#E2F5FF" width="27" height="21"/>
	<rect x="112.5" y="43.75" fill="#E2F5FF" width="27" height="20.75"/>
	<rect x="112.5" y="8" fill="#E2F5FF" width="27" height="20.75"/>
	<rect x="151" y="41.75" fill="#E2F5FF" width="21.25" height="24.25"/>
	<rect x="151" y="5.75" fill="#E2F5FF" width="21.25" height="24.25"/>
</g>
<g id="Layer_1">
	<path fill="#B26550" d="M162,0.001c-9.942,0-18,8.061-18,18C144,27.942,152.058,36,162,36c9.941,0,18-8.058,18-17.999
		C180,8.062,171.939,0.001,162,0.001z M166.764,17.927h-3.117c0,4.979,0,11.114,0,11.114h-4.619c0,0,0-6.071,0-11.114h-2.197v-3.925
		h2.197v-2.543c0-1.82,0.863-4.661,4.662-4.661l3.421,0.014v3.812c0,0-2.08,0-2.483,0c-0.404,0-0.979,0.201-0.979,1.068v2.312h3.521
		L166.764,17.927z"/>
	<path fill="#FF9003" d="M162,36.001c-9.942,0-18,8.061-18,18C144,63.942,152.058,72,162,72c9.941,0,18-8.058,18-17.998
		C180,44.062,171.939,36.001,162,36.001z M166.764,53.927h-3.117c0,4.979,0,11.114,0,11.114h-4.619c0,0,0-6.071,0-11.114h-2.197
		v-3.925h2.197v-2.543c0-1.82,0.863-4.662,4.662-4.662l3.421,0.015v3.812c0,0-2.08,0-2.483,0c-0.404,0-0.979,0.201-0.979,1.068
		v2.312h3.521L166.764,53.927z"/>
	<g>
		<polygon fill="#B26550" points="133.43,14.06 133.43,11.175 133.43,10.744 132.998,10.745 130.113,10.755 130.124,14.071 		"/>
		<path fill="#B26550" d="M125.91,21.718c1.898,0,3.444-1.545,3.444-3.443c0-0.75-0.244-1.443-0.652-2.009
			c-0.625-0.867-1.644-1.437-2.792-1.437c-1.149,0-2.166,0.57-2.793,1.437c-0.408,0.565-0.651,1.259-0.651,2.009
			C122.466,20.173,124.01,21.718,125.91,21.718z"/>
		<path fill="#B26550" d="M126,0c-9.942,0-18.001,8.058-18.001,17.999C107.999,27.94,116.058,36,126,36
			c9.939,0,17.999-8.06,17.999-18.001C143.999,8.058,135.938,0,126,0z M135.694,16.266v8.012c0,2.086-1.697,3.781-3.781,3.781
			h-12.007c-2.086,0-3.782-1.695-3.782-3.781v-8.012v-3.994c0-2.086,1.696-3.782,3.782-3.782h12.007
			c2.084,0,3.781,1.696,3.781,3.782V16.266z"/>
		<path fill="#B26550" d="M131.26,18.274c0,2.949-2.398,5.351-5.35,5.351s-5.35-2.401-5.35-5.351c0-0.711,0.141-1.388,0.393-2.009
			h-2.922v8.012c0,1.034,0.842,1.875,1.875,1.875h12.007c1.033,0,1.873-0.841,1.873-1.875v-8.012h-2.922
			C131.118,16.887,131.26,17.563,131.26,18.274z"/>
	</g>
	<g>
		<polygon fill="#FF9003" points="133.43,50.061 133.43,47.175 133.43,46.744 132.998,46.745 130.113,46.755 130.124,50.07 		"/>
		<path fill="#FF9003" d="M125.91,57.718c1.898,0,3.444-1.545,3.444-3.443c0-0.75-0.244-1.443-0.652-2.009
			c-0.625-0.867-1.644-1.437-2.792-1.437c-1.149,0-2.166,0.569-2.793,1.437c-0.408,0.565-0.651,1.259-0.651,2.009
			C122.466,56.173,124.01,57.718,125.91,57.718z"/>
		<path fill="#FF9003" d="M126,36c-9.942,0-18.001,8.059-18.001,17.999C107.999,63.94,116.058,72,126,72
			c9.939,0,17.999-8.06,17.999-18.001C143.999,44.059,135.938,36,126,36z M135.694,52.266v8.012c0,2.086-1.697,3.781-3.781,3.781
			h-12.007c-2.086,0-3.782-1.695-3.782-3.781v-8.012v-3.994c0-2.086,1.696-3.781,3.782-3.781h12.007
			c2.084,0,3.781,1.695,3.781,3.781V52.266z"/>
		<path fill="#FF9003" d="M131.26,54.274c0,2.949-2.398,5.351-5.35,5.351s-5.35-2.401-5.35-5.351c0-0.711,0.141-1.388,0.393-2.009
			h-2.922v8.012c0,1.034,0.842,1.875,1.875,1.875h12.007c1.033,0,1.873-0.841,1.873-1.875v-8.012h-2.922
			C131.118,52.887,131.26,53.563,131.26,54.274z"/>
	</g>
	<path fill="#B26550" d="M90.001,0C80.059,0,72,8.061,72,18.001C72,27.942,80.059,36,90.001,36C99.942,36,108,27.942,108,18.001
		C108,8.061,99.941,0,90.001,0z M99.067,14.372c0.01,0.194,0.014,0.39,0.014,0.586c0,5.995-4.563,12.907-12.906,12.907
		c-2.562,0-4.946-0.751-6.954-2.038c0.354,0.042,0.715,0.063,1.081,0.063c2.126,0,4.082-0.726,5.634-1.942
		c-1.984-0.037-3.659-1.349-4.236-3.15c0.276,0.054,0.561,0.08,0.854,0.08c0.414,0,0.814-0.053,1.194-0.158
		c-2.076-0.416-3.639-2.251-3.639-4.447c0-0.02,0-0.038,0-0.059c0.611,0.341,1.311,0.544,2.055,0.568
		c-1.218-0.815-2.018-2.202-2.018-3.776c0-0.831,0.223-1.611,0.613-2.281c2.238,2.744,5.58,4.551,9.352,4.739
		c-0.077-0.331-0.118-0.679-0.118-1.034c0-2.504,2.031-4.536,4.536-4.536c1.306,0,2.484,0.551,3.312,1.432
		c1.033-0.203,2.004-0.581,2.881-1.101c-0.341,1.06-1.059,1.949-1.996,2.509c0.919-0.109,1.793-0.354,2.606-0.714
		C100.725,12.933,99.954,13.732,99.067,14.372z"/>
	<path fill="#FF9003" d="M90.001,36C80.059,36,72,44.061,72,54.001C72,63.942,80.059,72,90.001,72C99.942,72,108,63.942,108,54.001
		C108,44.061,99.941,36,90.001,36z M99.067,50.371c0.01,0.194,0.014,0.391,0.014,0.587c0,5.995-4.563,12.907-12.906,12.907
		c-2.562,0-4.946-0.751-6.954-2.038c0.354,0.042,0.715,0.063,1.081,0.063c2.126,0,4.082-0.726,5.634-1.942
		c-1.984-0.037-3.659-1.349-4.236-3.15c0.276,0.054,0.561,0.08,0.854,0.08c0.414,0,0.814-0.053,1.194-0.158
		c-2.076-0.416-3.639-2.251-3.639-4.447c0-0.02,0-0.038,0-0.059c0.611,0.341,1.311,0.544,2.055,0.568
		c-1.218-0.815-2.018-2.202-2.018-3.776c0-0.831,0.223-1.611,0.613-2.281c2.238,2.744,5.58,4.551,9.352,4.74
		c-0.077-0.332-0.118-0.68-0.118-1.034c0-2.505,2.031-4.536,4.536-4.536c1.306,0,2.484,0.551,3.312,1.432
		c1.033-0.202,2.004-0.58,2.881-1.1c-0.341,1.06-1.059,1.948-1.996,2.509c0.919-0.109,1.793-0.354,2.606-0.714
		C100.725,48.934,99.954,49.732,99.067,50.371z"/>
	<path fill="#B26550" d="M54,0c-9.941,0-18,8.061-18,18c0,9.94,8.059,17.998,18,17.998c9.94,0,18-8.058,18-17.998
		C72,8.061,63.94,0,54,0z M47.098,23.577c-3.13,0-5.666-2.534-5.666-5.663c0-3.131,2.536-5.666,5.666-5.666
		c3.129,0,5.665,2.534,5.665,5.666C52.762,21.042,50.227,23.577,47.098,23.577z M61.312,23.577c-3.13,0-5.665-2.534-5.665-5.663
		c0-3.131,2.535-5.666,5.665-5.666c3.127,0,5.665,2.534,5.665,5.666C66.978,21.042,64.439,23.577,61.312,23.577z"/>
	<path fill="#FF9003" d="M54,36c-9.941,0-18,8.061-18,18c0,9.941,8.059,17.998,18,17.998c9.94,0,18-8.057,18-17.998
		C72,44.061,63.94,36,54,36z M47.098,59.576c-3.13,0-5.666-2.533-5.666-5.662c0-3.132,2.536-5.666,5.666-5.666
		c3.129,0,5.665,2.534,5.665,5.666C52.762,57.043,50.227,59.576,47.098,59.576z M61.312,59.576c-3.13,0-5.665-2.533-5.665-5.662
		c0-3.132,2.535-5.666,5.665-5.666c3.127,0,5.665,2.534,5.665,5.666C66.978,57.043,64.439,59.576,61.312,59.576z"/>
	<path fill="#B26550" d="M28.103,26.482v-7.027c0-3.765-2.011-5.517-4.689-5.517c-2.163,0-3.132,1.19-3.672,2.024v-1.736h-4.074
		c0.055,1.15,0,12.256,0,12.256h4.074v-6.846c0-0.364,0.026-0.73,0.135-0.992c0.294-0.732,0.964-1.49,2.089-1.49
		c1.475,0,2.063,1.124,2.063,2.771v6.558L28.103,26.482L28.103,26.482z M11.375,12.553c1.421,0,2.306-0.942,2.306-2.119
		c-0.026-1.202-0.885-2.117-2.278-2.117s-2.305,0.915-2.305,2.117c0,1.177,0.885,2.119,2.252,2.119H11.375z M18,36
		C8.059,36,0,27.941,0,18S8.059,0,18,0s18,8.059,18,18S27.941,36,18,36z M13.412,26.482V14.226H9.339v12.256H13.412z"/>
	<path fill="#FF9003" d="M28.103,62.482v-7.027c0-3.766-2.011-5.518-4.689-5.518c-2.163,0-3.132,1.19-3.672,2.025v-1.736h-4.074
		c0.055,1.149,0,12.256,0,12.256h4.074v-6.846c0-0.364,0.026-0.73,0.135-0.992c0.294-0.732,0.964-1.49,2.089-1.49
		c1.475,0,2.063,1.124,2.063,2.771v6.558L28.103,62.482L28.103,62.482z M11.375,48.553c1.421,0,2.306-0.941,2.306-2.118
		c-0.026-1.202-0.885-2.116-2.278-2.116s-2.305,0.914-2.305,2.116c0,1.177,0.885,2.118,2.252,2.118H11.375z M18,72
		C8.059,72,0,63.941,0,54s8.059-18,18-18s18,8.059,18,18S27.941,72,18,72z M13.412,62.482V50.227H9.339v12.256H13.412z"/>
</g>
</svg>
